<svg xmlns="http://www.w3.org/2000/svg" width="1024" height="1024" viewBox="0 0 1024 1024"><title>OpenTeam dark app icon</title><defs><linearGradient id="background" x1="0" y1="0" x2="0" y2="1"><stop offset="0" stop-color="rgba(41,43,47,1)"/><stop offset="1" stop-color="rgba(8,9,11,1)"/></linearGradient><linearGradient id="layer-0" x1="0" y1="0" x2="0" y2="1"><stop offset="0" stop-color="rgba(66,202,188,1)"/><stop offset="1" stop-color="rgba(38,178,165,1)"/></linearGradient><linearGradient id="layer-1" x1="0" y1="0" x2="0" y2="1"><stop offset="0" stop-color="rgba(39,44,46,1)"/><stop offset="1" stop-color="rgba(16,23,25,1)"/></linearGradient><linearGradient id="layer-2" x1="0" y1="0" x2="0" y2="1"><stop offset="0" stop-color="rgba(91,225,207,1)"/><stop offset="1" stop-color="rgba(58,198,183,1)"/></linearGradient></defs><rect width="1024" height="1024" fill="url(#background)"/><g transform="translate(92 105) scale(8.4)" fill="url(#layer-0)"><rect x="47" y="6" width="6" height="18" rx="3"/><circle cx="50" cy="7" r="5.5"/><rect x="14" y="22" width="72" height="62" rx="14"/></g>
<g transform="translate(92 105) scale(8.4)" fill="url(#layer-1)"><g transform="translate(52 0) scale(0.9703 1) translate(-50 0)"><rect x="24" y="36" width="52" height="20" rx="10"/><rect x="35" y="64" width="8" height="6" rx="2.5"/><rect x="46" y="64" width="8" height="6" rx="2.5"/><rect x="57" y="64" width="8" height="6" rx="2.5"/></g></g>
<g transform="translate(92 105) scale(8.4)" fill="url(#layer-2)"><g transform="translate(52 0) scale(0.9703 1) translate(-50 0)"><circle cx="40.5" cy="46" r="4"/><circle cx="64.5" cy="46" r="4"/></g></g>
</svg>
